<svg xmlns="http://www.w3.org/2000/svg" width="500" height="372.608" viewBox="0 0 500 372.608">
  <g id="Group_14782" data-name="Group 14782" transform="translate(-0.303 -163.953)">
    <g id="Background_Complete" data-name="Background Complete" transform="translate(0.303 109)">
      <g id="Group_1" data-name="Group 1">
        <rect id="Rectangle_1" data-name="Rectangle 1" width="500" height="0.25" transform="translate(0 382.398)" fill="#ebebeb"/>
        <rect id="Rectangle_2" data-name="Rectangle 2" width="21.679" height="0.25" transform="translate(428.222 398.494)" fill="#ebebeb"/>
        <rect id="Rectangle_3" data-name="Rectangle 3" width="34.109" height="0.25" transform="translate(310.558 393.306)" fill="#ebebeb"/>
        <rect id="Rectangle_4" data-name="Rectangle 4" width="44.525" height="0.25" transform="translate(396.586 389.208)" fill="#ebebeb"/>
        <rect id="Rectangle_5" data-name="Rectangle 5" width="11.138" height="0.25" transform="translate(161.877 394.25)" fill="#ebebeb"/>
        <rect id="Rectangle_6" data-name="Rectangle 6" width="38.389" height="0.25" transform="translate(114.585 394.25)" fill="#ebebeb"/>
        <rect id="Rectangle_7" data-name="Rectangle 7" width="27.695" height="0.25" transform="translate(66.307 390.028)" fill="#ebebeb"/>
        <path id="Path_1" data-name="Path 1" d="M237.014,337.8H43.915a5.715,5.715,0,0,1-5.708-5.708V60.66a5.714,5.714,0,0,1,5.708-5.707h193.1a5.714,5.714,0,0,1,5.707,5.707V332.092A5.715,5.715,0,0,1,237.014,337.8ZM43.915,55.2a5.463,5.463,0,0,0-5.458,5.457V332.092a5.464,5.464,0,0,0,5.458,5.458h193.1a5.463,5.463,0,0,0,5.457-5.458V60.66a5.463,5.463,0,0,0-5.457-5.457Z" fill="#ebebeb"/>
        <path id="Path_2" data-name="Path 2" d="M453.31,337.8h-193.1a5.714,5.714,0,0,1-5.707-5.708V60.66a5.713,5.713,0,0,1,5.707-5.707h193.1a5.714,5.714,0,0,1,5.709,5.707V332.092A5.715,5.715,0,0,1,453.31,337.8ZM260.212,55.2a5.463,5.463,0,0,0-5.457,5.457V332.092a5.463,5.463,0,0,0,5.457,5.458h193.1a5.464,5.464,0,0,0,5.459-5.458V60.66A5.464,5.464,0,0,0,453.31,55.2Z" fill="#ebebeb"/>
      </g>
      <g id="Group_7" data-name="Group 7">
        <g id="Group_2" data-name="Group 2" opacity="0.24">
          <path id="Path_3" data-name="Path 3" d="M216.073,200.878l.45-13.141-8.068-2.636a78.307,78.307,0,0,0-2.151-13.2l6.838-5.042L208.5,154.52l-8.458.682A77.32,77.32,0,0,0,193,143.852l4.382-7.313-9.009-9.611L180.81,130.8a82.474,82.474,0,0,0-10.84-7.835l1.225-8.394-12-5.445-5.5,6.443a81.144,81.144,0,0,0-13.016-3.05l-2.045-8.228-13.176-.451-2.6,8.068a81.238,81.238,0,0,0-13.2,2.152l-5.078-6.805-12.342,4.611.682,8.46a80.428,80.428,0,0,0-11.35,7.074L74.3,123.02l-9.646,8.971,3.871,7.6a77.368,77.368,0,0,0-7.8,10.842l-8.392-1.259-5.479,11.995,6.476,5.5a78.45,78.45,0,0,0-3.05,13.018l-8.264,2.076-.45,13.141,8.1,2.639a77.694,77.694,0,0,0,2.152,13.194l-6.837,5.042,4.645,12.345,8.458-.683a77.5,77.5,0,0,0,7.04,11.35L60.744,246.1l9.009,9.612,7.561-3.873a80.606,80.606,0,0,0,10.84,7.836l-1.26,8.391,12,5.445,5.532-6.441a81.211,81.211,0,0,0,13.017,3.049l2.044,8.228,13.175.451,2.6-8.068a81.242,81.242,0,0,0,13.195-2.152l5.043,6.8,12.342-4.611-.647-8.457a82.466,82.466,0,0,0,11.35-7.076l7.279,4.382,9.645-8.973-3.87-7.6a77.441,77.441,0,0,0,7.8-10.841l8.392,1.26,5.479-12-6.477-5.5a77.494,77.494,0,0,0,3.049-13.016Zm-88.8,42.571a52.16,52.16,0,1,1,53.9-50.328A52.147,52.147,0,0,1,127.276,243.449Z" fill="#6578b5"/>
        </g>
        <g id="Group_3" data-name="Group 3" opacity="0.24">
          <path id="Path_4" data-name="Path 4" d="M440.957,157.423l3.314-3.094-1.324-2.61a26.965,26.965,0,0,0,2.693-3.743l2.9.438,1.877-4.142-2.229-1.9a26.665,26.665,0,0,0,1.051-4.485l2.852-.715.147-4.54-2.788-.9a28.486,28.486,0,0,0-.733-4.553l2.346-1.748-1.6-4.254-2.912.231a28,28,0,0,0-2.43-3.918l1.508-2.505-3.1-3.323-2.6,1.334a27.991,27.991,0,0,0-3.742-2.694l.421-2.9-4.134-1.885-1.9,2.229a27.721,27.721,0,0,0-4.492-1.043l-.707-2.843-4.54-.164-.908,2.8a26.65,26.65,0,0,0-4.546.742l-1.739-2.354-4.261,1.59.238,2.919a27.16,27.16,0,0,0-3.918,2.431l-2.521-1.509-3.314,3.1,1.332,2.619a26.828,26.828,0,0,0-2.693,3.742l-2.9-.438-1.878,4.143,2.229,1.9a26.754,26.754,0,0,0-1.051,4.484l-2.851.715-.147,4.541,2.788.9a27.653,27.653,0,0,0,.732,4.554l-2.353,1.739,1.6,4.253,2.919-.222a27.91,27.91,0,0,0,2.431,3.918l-1.508,2.505,3.1,3.323,2.6-1.333a27.944,27.944,0,0,0,3.742,2.693l-.429,2.889,4.134,1.885,1.9-2.22a28.362,28.362,0,0,0,4.493,1.042l.706,2.843,4.54.164.908-2.8a26.633,26.633,0,0,0,4.546-.741l1.739,2.353,4.262-1.589-.239-2.92a26.888,26.888,0,0,0,3.918-2.43Zm-23.616-19.131a6.471,6.471,0,1,1,9.144.313A6.471,6.471,0,0,1,417.341,138.292Z" fill="#6578b5"/>
        </g>
        <path id="Path_5" data-name="Path 5" d="M319.989,292.336,309.648,285.2c0-.008,0-.017-.006-.025a56.779,56.779,0,0,0-4.159-10.772l2.65-10.4-15-16.065-10.559,1.933a56.854,56.854,0,0,0-10.454-4.882.269.269,0,0,1-.026-.009l-6.42-10.809-21.964-.753-7.142,10.341-.041.01a56.854,56.854,0,0,0-10.76,4.154l-10.393-2.649-16.064,15,1.929,10.538-.005.009a55.707,55.707,0,0,0-4.885,10.494l-10.808,6.417-.753,21.965,10.351,7.148a55.01,55.01,0,0,0,4.147,10.818l0,0-2.642,10.366,15,16.063,10.493-1.92a57.346,57.346,0,0,0,10.546,4.893l.009,0,6.409,10.794,21.965.753,7.137-10.334a57.236,57.236,0,0,0,10.851-4.158l0,0,10.345,2.636,16.064-15-1.929-10.54a55.715,55.715,0,0,0,4.885-10.495v0l10.812-6.421Zm-68.452,33.39a24.715,24.715,0,1,1,25.546-23.854A24.722,24.722,0,0,1,251.537,325.726Z" fill="#aab4d6" opacity="0.24"/>
        <path id="Path_6" data-name="Path 6" d="M343.548,229.954h-.072l-17.317-.593a2.11,2.11,0,0,1-1.743-1.032l-4.663-7.852a47.513,47.513,0,0,1-7.282-3.378l-7.507,1.373a2.1,2.1,0,0,1-1.923-.636l-11.826-12.663a2.115,2.115,0,0,1-.5-1.963l1.888-7.41a45.937,45.937,0,0,1-2.859-7.47l-7.531-5.2a2.113,2.113,0,0,1-.911-1.81L281.893,164a2.108,2.108,0,0,1,1.032-1.743l7.866-4.671a46.289,46.289,0,0,1,3.37-7.248l-1.38-7.533a2.114,2.114,0,0,1,.636-1.923l12.665-11.827a2.112,2.112,0,0,1,1.963-.5l7.435,1.9a46.934,46.934,0,0,1,7.449-2.871l5.2-7.525a2.042,2.042,0,0,1,1.809-.91l17.317.593a2.109,2.109,0,0,1,1.743,1.033l4.672,7.866a47.005,47.005,0,0,1,7.227,3.372l7.554-1.384a2.113,2.113,0,0,1,1.924.636L382.2,143.924a2.114,2.114,0,0,1,.5,1.963l-1.9,7.437a46.892,46.892,0,0,1,2.871,7.446l7.525,5.2a2.112,2.112,0,0,1,.911,1.809l-.593,17.319a2.111,2.111,0,0,1-1.033,1.743l-7.869,4.673a46.225,46.225,0,0,1-3.366,7.243l1.379,7.536a2.109,2.109,0,0,1-.636,1.923L367.33,220.037a2.105,2.105,0,0,1-1.963.5l-7.4-1.886a47.312,47.312,0,0,1-7.489,2.87l-5.191,7.519A2.114,2.114,0,0,1,343.548,229.954Zm-16.09-4.775,15.009.514,4.971-7.2a2.111,2.111,0,0,1,1.189-.839,43.1,43.1,0,0,0,8.154-3.126l.014-.007a2.1,2.1,0,0,1,1.458-.153l7.039,1.793,10.976-10.249-1.313-7.174a2.115,2.115,0,0,1,.268-1.47,41.935,41.935,0,0,0,3.65-7.834,2.12,2.12,0,0,1,.942-1.172l7.522-4.468.515-15.01-7.2-4.975a2.1,2.1,0,0,1-.8-1.069c-.018-.053-.035-.111-.049-.169a42.575,42.575,0,0,0-3.114-8.054,2.115,2.115,0,0,1-.163-1.478l1.8-7.078-10.25-10.979-7.189,1.317a2.106,2.106,0,0,1-1.462-.264,42.807,42.807,0,0,0-7.846-3.666,2.338,2.338,0,0,1-.441-.205,2.108,2.108,0,0,1-.709-.721l-4.472-7.529-15.01-.515-4.974,7.2a2.111,2.111,0,0,1-1.243.853,42.8,42.8,0,0,0-8.054,3.112,2.107,2.107,0,0,1-1.477.163l-7.075-1.8-10.977,10.251,1.313,7.173a2.111,2.111,0,0,1-.189,1.324c-.029.057-.06.114-.1.17a41.924,41.924,0,0,0-3.654,7.859,2.116,2.116,0,0,1-.917,1.122l-7.528,4.471-.514,15.009,7.21,4.979a2.105,2.105,0,0,1,.838,1.187,41.676,41.676,0,0,0,3.11,8.117,2.069,2.069,0,0,1,.171.454,2.1,2.1,0,0,1,0,1.033l-1.8,7.054,10.25,10.975,7.138-1.305a2.118,2.118,0,0,1,1.455.26,43.347,43.347,0,0,0,7.887,3.665,2.107,2.107,0,0,1,1.175.933Zm24.783-94.812h0Zm-15.513,75.847c-.37,0-.739-.007-1.111-.02a31.541,31.541,0,1,1,1.111.02Zm-.038-59.094a27.46,27.46,0,1,0,.951.017C337.323,147.126,337.005,147.12,336.69,147.12Z" fill="#6578b5" opacity="0.24"/>
        <g id="Group_4" data-name="Group 4">
          <path id="Path_7" data-name="Path 7" d="M383.439,105.323l-7.174-1.927-1.926-7.173,2.809-2.809,2.963,6.136,6.137,2.963Z" fill="#e0e0e0"/>
          <path id="Path_8" data-name="Path 8" d="M383.885,100.521a3.347,3.347,0,1,0-4.735-4.733l3.568-5.354,4.786,2.42,1.049,5.028Z" fill="#e0e0e0"/>
          <path id="Path_9" data-name="Path 9" d="M376.582,93.981l5.257-5.257,7.173,1.926,1.926,7.174-5.256,5.257-7.174-1.927Zm9.545,4.3a3.347,3.347,0,1,0-4.734-.01A3.36,3.36,0,0,0,386.127,98.279Z" fill="#6578b5" opacity="0.81"/>
        </g>
        <g id="Group_5" data-name="Group 5">
          <path id="Path_10" data-name="Path 10" d="M90.221,296.708l3.849-1.034,1.034-3.849L93.6,290.318l-1.59,3.293-3.293,1.59Z" fill="#e0e0e0"/>
          <path id="Path_11" data-name="Path 11" d="M89.982,294.131a1.8,1.8,0,1,1,2.54-2.54l-1.914-2.873-2.568,1.3-.563,2.7Z" fill="#e0e0e0"/>
          <path id="Path_12" data-name="Path 12" d="M93.9,290.622,91.08,287.8l-3.85,1.033-1.033,3.85,2.82,2.821,3.85-1.034Zm-5.123,2.306a1.8,1.8,0,1,1,2.541-.005A1.8,1.8,0,0,1,88.778,292.928Z" fill="#f0f0f0"/>
        </g>
        <g id="Group_6" data-name="Group 6">
          <path id="Path_13" data-name="Path 13" d="M76.363,85.662l3.194,3.195a2.145,2.145,0,0,0,3.025,0h0a2.145,2.145,0,0,0,0-3.025l-3.195-3.194a2.144,2.144,0,0,0-3.024,0h0A2.144,2.144,0,0,0,76.363,85.662Z" fill="#f0f0f0"/>
          <path id="Path_14" data-name="Path 14" d="M74.112,77.705a4.455,4.455,0,1,1-2.955,5.786A4.6,4.6,0,0,1,74.112,77.705Z" fill="#e0e0e0"/>
          <rect id="Rectangle_8" data-name="Rectangle 8" width="1.37" height="10.102" transform="matrix(-0.338, -0.941, 0.941, -0.338, 71.093, 84.242)" fill="#f0f0f0"/>
        </g>
      </g>
    </g>
    <g id="Shadow" transform="translate(0.303 109)">
      <ellipse id="_Path_" data-name="&lt;Path&gt;" cx="193.889" cy="11.323" rx="193.889" ry="11.323" transform="translate(56.111 404.915)" fill="#cba363" opacity="0.44"/>
    </g>
    <g id="Character" transform="translate(0.303 109)">
      <g id="Group_25" data-name="Group 25">
        <path id="Path_48" data-name="Path 48" d="M222.452,304.841c1.389-22.4-1.166-63.126,40.944-57.736,45.136,5.778,32.223,58.556,32.223,58.556Z" fill="#324480"/>
        <g id="Group_18" data-name="Group 18">
          <circle id="Ellipse_1" data-name="Ellipse 1" cx="18.375" cy="18.375" r="18.375" transform="translate(233.138 254.625)" fill="#fff"/>
          <path id="Path_49" data-name="Path 49" d="M253.927,254.654c-8.7-1.487-18.01,4.929-18.927,11.429l34.507,3.173C268.291,261.847,260.833,255.833,253.927,254.654Z" fill="#263238"/>
          <path id="Path_50" data-name="Path 50" d="M265.576,272.543c-.247,4.8-2.865,8.574-5.848,8.421s-5.2-4.172-4.954-8.976,2.864-8.574,5.847-8.421S265.823,267.739,265.576,272.543Z" fill="#263238"/>
          <path id="Path_51" data-name="Path 51" d="M251.514,292.375A19.375,19.375,0,1,1,270.889,273,19.4,19.4,0,0,1,251.514,292.375Zm0-36.75A17.375,17.375,0,1,0,268.889,273,17.4,17.4,0,0,0,251.514,255.625Z" fill="#407bff"/>
        </g>
        <path id="Path_52" data-name="Path 52" d="M290.485,304.277a.583.583,0,0,1-.117-.013.5.5,0,0,1-.37-.6c.033-.135,3.22-13.694-.089-27.4a.5.5,0,1,1,.971-.235c3.368,13.951.124,27.735.091,27.873A.5.5,0,0,1,290.485,304.277Z" fill="#fff" opacity="0.3"/>
        <path id="Path_53" data-name="Path 53" d="M287.7,268.759a.5.5,0,0,1-.455-.292,35.323,35.323,0,0,0-4.741-7.657.5.5,0,1,1,.774-.633,36.334,36.334,0,0,1,4.876,7.874.5.5,0,0,1-.454.708Z" fill="#fff" opacity="0.3"/>
        <path id="Path_54" data-name="Path 54" d="M128.735,409.918c-.125,0-.248,0-.372-.005a5,5,0,1,1,.274-10h.1c2.889,0,9.839-3.51,24.378-26.43a5,5,0,0,1,7.509-1.09,206.935,206.935,0,0,0,37.143,25.477,5,5,0,0,1-4.525,8.917,213.261,213.261,0,0,1-34.8-23.147C146.254,401.965,137.211,409.918,128.735,409.918Z" fill="#263238"/>
        <path id="Path_55" data-name="Path 55" d="M159.67,371.5a3.113,3.113,0,0,1-.428-.03,3,3,0,0,1-2.545-3.395c.711-4.976-.171-23.626-6.475-38.126a3,3,0,0,1,1.062-3.676c13.7-9.334,42.876-10.451,44.112-10.494a3,3,0,0,1,.209,6c-.271.01-25.78.989-38.888,8.2,5.584,14.438,6.849,32.436,5.919,38.947A3,3,0,0,1,159.67,371.5Z" fill="#263238"/>
        <path id="Path_56" data-name="Path 56" d="M164.71,367.616c-2-4.706-10.988-4.172-16.268-.138-2.822,2.155-6.641,8.64-7.042,10.991a3.54,3.54,0,0,0,4.023,4.238c3.447-.3,8.181-5.309,8.181-5.309-3.149,3.088.914,5.267,6.977.8C163.944,375.722,166.944,372.886,164.71,367.616Z" fill="#324480"/>
        <path id="Path_57" data-name="Path 57" d="M336.706,306.161a.517.517,0,0,1-.139-.019.5.5,0,0,1-.342-.619c1.332-4.639,2.787-7.474,4.7-9.05a5.2,5.2,0,0,1,.153-3.259,6.437,6.437,0,0,1,2.362-3,2.556,2.556,0,0,1-.591-2.382,6.174,6.174,0,0,1,2.136-3.156,2.3,2.3,0,0,1-.567-1.508c-.025-2.982,5.508-7.525,11.763-8.379a.49.49,0,0,1,.563.428.5.5,0,0,1-.429.562c-5.937.811-10.916,5.11-10.9,7.38a1.306,1.306,0,0,0,.362.9,12.256,12.256,0,0,1,9.283-1.864c3.069.587,4.317,1.236,4.172,2.167-.272,1.753-6.809,2.116-11.19,1.594a6.143,6.143,0,0,1-2.25-.645,5.4,5.4,0,0,0-1.969,2.73,1.579,1.579,0,0,0,.5,1.636c1.857-.957,4.47-1.358,7.916-.6,4.537,1,4.707,1.554,4.808,1.883a.66.66,0,0,1-.161.662c-.956,1.013-7.906.532-11.4-.323a5.047,5.047,0,0,1-1.2-.451,5.477,5.477,0,0,0-2.268,2.708,4.323,4.323,0,0,0-.225,2.3c.18-.107.363-.2.551-.3,2.069-.981,4.572-.817,7.654.5,2.045.876,3.031,1.651,3.1,2.44a1.1,1.1,0,0,1-.57,1.042c-1.525,1.013-6.87.859-9.649-.62a3.909,3.909,0,0,1-1.538-1.487c-1.634,1.493-2.953,4.166-4.156,8.356A.5.5,0,0,1,336.706,306.161Zm5.425-9.331a2.944,2.944,0,0,0,1.22,1.217c2.256,1.2,6.7,1.475,8.361.8.341-.138.392-.252.392-.253s-.055-.563-2.5-1.61c-2.8-1.2-5.037-1.367-6.831-.517A5.479,5.479,0,0,0,342.131,296.83Zm3.334-6.568c.087.025.173.048.259.07a32.91,32.91,0,0,0,9.933.743,22.663,22.663,0,0,0-3.636-1.017A11.332,11.332,0,0,0,345.465,290.262Zm1.262-5.622a6.365,6.365,0,0,0,1.437.323c4.982.59,9.382-.108,10.04-.729-.17-.154-.841-.582-3.329-1.057A11.262,11.262,0,0,0,346.727,284.64Z" fill="#263238"/>
        <path id="Path_58" data-name="Path 58" d="M206.528,408.248c.658-.211.438-.847-.3-.847H192.691c-25.781-2.73-43.794.929-32.443,1.792s-.8.681-9.089,3.817,61.654,3.926,68.016,0C225.041,409.389,197.392,411.176,206.528,408.248Z" fill="#263238"/>
        <path id="Path_59" data-name="Path 59" d="M303.469,412.238l-117.8-3.9-4.889-114.222,139.111,3.111Z" fill="#253776" opacity="0.9"/>
        <path id="Path_60" data-name="Path 60" d="M222.452,410.053a.5.5,0,0,1-.5-.459L212.51,294.873a.5.5,0,0,1,1-.082l9.444,114.721a.5.5,0,0,1-.458.539Z" fill="#263238"/>
        <g id="Group_19" data-name="Group 19">
          <path id="Path_61" data-name="Path 61" d="M303.469,412.238l31.662-4.82,9.972-106.21-25.215-3.986Z" fill="#407bff"/>
          <path id="Path_62" data-name="Path 62" d="M303.469,412.238l31.662-4.82,9.972-106.21-25.215-3.986Z" fill="#13276b" opacity="0.91"/>
        </g>
        <path id="Path_63" data-name="Path 63" d="M195.734,386.316l-2.9-67.862a12.269,12.269,0,0,1,12.532-12.79l88.059,1.969a12.269,12.269,0,0,1,11.871,14l-9.763,68.391a12.269,12.269,0,0,1-12.553,10.528l-75.39-2.5A12.271,12.271,0,0,1,195.734,386.316Z" fill="#dfc49c"/>
        <g id="Group_20" data-name="Group 20">
          <path id="Path_64" data-name="Path 64" d="M205.247,326.488l13.624.434-.112,3.512-8.529-.271-.083,2.615,7.912.252-.107,3.355-7.912-.252-.1,3.244,8.776.279-.118,3.726-13.871-.442Z" fill="#9d6827"/>
          <path id="Path_65" data-name="Path 65" d="M221.4,343.471l.523-16.452,8.473.269a12.31,12.31,0,0,1,3.59.519,3.843,3.843,0,0,1,1.961,1.562,4.647,4.647,0,0,1-1.638,6.593,6.146,6.146,0,0,1-1.806.594,3.441,3.441,0,0,1,2.09,1.539,6.534,6.534,0,0,1,.68,1.045l2.31,4.846-5.745-.183-2.557-5.114a3.849,3.849,0,0,0-.88-1.3,2.139,2.139,0,0,0-1.234-.422l-.448-.014-.213,6.677Zm5.418-9.623,2.143.068a7.663,7.663,0,0,0,1.354-.182,1.341,1.341,0,0,0,.841-.49,1.667,1.667,0,0,0-.116-2.183,3.06,3.06,0,0,0-1.883-.487l-2.233-.071Z" fill="#9d6827"/>
          <path id="Path_66" data-name="Path 66" d="M239.277,344.04l.524-16.452,8.473.269a12.3,12.3,0,0,1,3.589.519,3.843,3.843,0,0,1,1.961,1.562,4.647,4.647,0,0,1-1.638,6.593,6.146,6.146,0,0,1-1.806.594,5.121,5.121,0,0,1,1.3.648,5.175,5.175,0,0,1,.785.891,6.534,6.534,0,0,1,.68,1.045l2.31,4.846-5.744-.183-2.558-5.114a3.824,3.824,0,0,0-.88-1.3,2.129,2.129,0,0,0-1.233-.422l-.449-.014-.213,6.677Zm5.418-9.624,2.143.069a7.764,7.764,0,0,0,1.354-.182,1.341,1.341,0,0,0,.841-.49,1.668,1.668,0,0,0-.116-2.183,3.058,3.058,0,0,0-1.883-.487l-2.233-.071Z" fill="#9d6827"/>
          <path id="Path_67" data-name="Path 67" d="M256.316,336.359a7.793,7.793,0,0,1,8.766-8.248,8.612,8.612,0,0,1,6.26,2.407,8.317,8.317,0,0,1,2.025,6.248,10.137,10.137,0,0,1-1.121,4.7,6.932,6.932,0,0,1-2.9,2.784,9.274,9.274,0,0,1-4.606.881,10.531,10.531,0,0,1-4.579-1.033,6.937,6.937,0,0,1-2.867-2.9A9.319,9.319,0,0,1,256.316,336.359Zm5.083.184a5.522,5.522,0,0,0,.812,3.61,3.507,3.507,0,0,0,5.055.183,6.09,6.09,0,0,0,1.019-3.8,5.087,5.087,0,0,0-.828-3.424,3.208,3.208,0,0,0-2.508-1.153,3.089,3.089,0,0,0-2.5,1.011A5.533,5.533,0,0,0,261.4,336.543Z" fill="#9d6827"/>
          <path id="Path_68" data-name="Path 68" d="M275.907,345.2l.524-16.452,8.473.27a12.3,12.3,0,0,1,3.589.519,3.836,3.836,0,0,1,1.961,1.561,4.647,4.647,0,0,1-1.638,6.593,6.117,6.117,0,0,1-1.806.594,5.1,5.1,0,0,1,1.3.649,5.176,5.176,0,0,1,.785.891,6.355,6.355,0,0,1,.679,1.045l2.311,4.845-5.745-.182-2.557-5.115a3.849,3.849,0,0,0-.88-1.3,2.129,2.129,0,0,0-1.234-.421l-.448-.015-.213,6.678Zm5.418-9.623,2.143.068a7.632,7.632,0,0,0,1.354-.181,1.345,1.345,0,0,0,.841-.49,1.668,1.668,0,0,0-.116-2.183,3.051,3.051,0,0,0-1.883-.487l-2.233-.071Z" fill="#9d6827"/>
        </g>
        <path id="Path_69" data-name="Path 69" d="M284,373.158a1.309,1.309,0,0,1-.97-.427l-8.56-9.369-9.237,8.44a1.313,1.313,0,0,1-1.855-.083l-8.56-9.369-9.237,8.439a1.313,1.313,0,0,1-1.854-.083l-8.561-9.369-9.237,8.44a1.311,1.311,0,0,1-1.854-.083l-8.561-9.369-9.237,8.44a1.312,1.312,0,1,1-1.77-1.938l10.205-9.325a1.312,1.312,0,0,1,1.855.083l8.561,9.369,9.236-8.44a1.312,1.312,0,0,1,1.855.083l8.56,9.369,9.237-8.44a1.313,1.313,0,0,1,1.855.083l8.56,9.37,9.237-8.44a1.31,1.31,0,0,1,1.854.083l9.447,10.338a1.312,1.312,0,0,1-.969,2.2Z" fill="#fff"/>
        <g id="Group_22" data-name="Group 22">
          <path id="Path_70" data-name="Path 70" d="M125.75,414.667l-6.258-2.985-5.583-27.167,3.03-3.337Z" fill="#324480"/>
          <g id="Group_21" data-name="Group 21">
            <path id="Path_71" data-name="Path 71" d="M125.75,414.667l8.3-4.851-7.119-22.384-10-6.253Z" fill="#324480"/>
            <path id="Path_72" data-name="Path 72" d="M125.75,414.667l8.3-4.851-7.119-22.384-10-6.253Z" opacity="0.2"/>
          </g>
        </g>
        <path id="Path_73" data-name="Path 73" d="M261.949,419.605c-.236,0-.467,0-.691-.009a5,5,0,1,1,.274-10c7.7.252,24.006-4.481,33.319-13.521a4.99,4.99,0,0,1,2.046-1.2c15.788-4.738,21.664,4.834,21.907,5.244l-8.608,5.09a1.356,1.356,0,0,0,.115.183c-.1-.132-2.331-3.04-9.451-1.241C289.173,414.822,271.233,419.605,261.949,419.605Z" fill="#263238"/>
        <g id="Group_24" data-name="Group 24">
          <path id="Path_74" data-name="Path 74" d="M261.395,426.252,243.182,425.1l-1.437-33.576,24.476.915Z" fill="#324480"/>
          <g id="Group_23" data-name="Group 23">
            <path id="Path_75" data-name="Path 75" d="M261.395,426.252l4.257-4.237,2.639-20.937-2.07-8.636Z" fill="#324480"/>
            <path id="Path_76" data-name="Path 76" d="M261.395,426.252l4.257-4.237,2.639-20.937-2.07-8.636Z" opacity="0.2"/>
          </g>
        </g>
        <path id="Path_77" data-name="Path 77" d="M366.91,413.537a2.991,2.991,0,0,1-1.813-.611c-10.394-7.9-24.445-21.926-29.837-35.457a3.042,3.042,0,0,1-.171-.614c-2.629-15.632-5.141-48.54-5.247-49.934a3,3,0,1,1,5.983-.453c.026.336,2.562,33.566,5.128,49.073,5.377,13.156,19.957,26.666,27.775,32.607a3,3,0,0,1-1.818,5.389Z" fill="#263238"/>
        <path id="Path_78" data-name="Path 78" d="M380.778,415.053c-2.32,0-4.949-1.052-7.815-3.125a3,3,0,0,1,3.518-4.862c2.477,1.793,3.83,1.987,4.3,1.987a3,3,0,0,1,0,6Z" fill="#263238"/>
        <path id="Path_79" data-name="Path 79" d="M373.8,411.842c3.21-9.535,16.37-7.651,20.9-6.235a48.068,48.068,0,0,1,11.069,4.8c2.455,1.605,2.495,4.285-.778,5.816-4.036,1.888-14.162.213-14.162.213,5.242,2.3-.01,5.972-9.2,2.36C378.637,417.623,372.671,415.336,373.8,411.842Z" fill="#324480"/>
        <path id="Path_80" data-name="Path 80" d="M341.862,331.036c-1.191,8.1-7.9,14.076-13.358,13.274s-5.685-8.038-4.493-16.139,3.349-14,8.806-13.2S343.053,322.935,341.862,331.036Z" fill="#263238"/>
        <circle id="Ellipse_2" data-name="Ellipse 2" cx="0.819" cy="0.819" r="0.819" transform="translate(209.056 297.056)" fill="#263238"/>
        <path id="Path_81" data-name="Path 81" d="M218.208,303.778a.819.819,0,1,1-.819-.82A.819.819,0,0,1,218.208,303.778Z" fill="#263238"/>
        <path id="Path_82" data-name="Path 82" d="M219.125,400.683a.82.82,0,1,1-.819-.82A.819.819,0,0,1,219.125,400.683Z" fill="#263238"/>
        <path id="Path_83" data-name="Path 83" d="M226.639,406.586a.82.82,0,1,1-.82-.82A.82.82,0,0,1,226.639,406.586Z" fill="#263238"/>
      </g>
    </g>
    <g id="Robot_Parts" data-name="Robot Parts" transform="translate(0.303 109)">
      <g id="Group_29" data-name="Group 29">
        <path id="Path_84" data-name="Path 84" d="M82.51,416.419a9.648,9.648,0,0,1-7.333-3.949A.5.5,0,1,1,76,411.9c1.866,2.7,5.979,4.131,7.805,3.281a1.4,1.4,0,0,0,.467-.339,6.069,6.069,0,0,1-3.525-4.482c-.227-1.267-.407-2.98.639-3.216,1.434-.323,3.31,3.146,4.032,5.775a3.559,3.559,0,0,1,.13,1.343,4.489,4.489,0,0,0,1.787.14,1.93,1.93,0,0,0,1.374-.745,5.842,5.842,0,0,1-2.3-4.189c-.388-2.735-.1-3.211.206-3.445a.674.674,0,0,1,.688-.078c1.069.455,2.365,4.334,2.613,6.53a3.09,3.09,0,0,1,0,.693,3.833,3.833,0,0,0,1.349.262,4.367,4.367,0,0,0,2.409-.629,3.445,3.445,0,0,1-.4-.3c-1.038-.887-1.456-2.3-1.281-4.331.136-1.568.493-2.424,1.123-2.694a1.138,1.138,0,0,1,1.208.24,6.909,6.909,0,0,1,1.725,5.556,2.934,2.934,0,0,1-.5,1.152c1.835.316,4.417-.2,6.643-.749a.5.5,0,1,1,.241.97c-2.71.67-5.627,1.215-7.688.618a5.685,5.685,0,0,1-3.5,1.162,4.857,4.857,0,0,1-1.639-.308,2.816,2.816,0,0,1-2.124,1.271,5.42,5.42,0,0,1-2.238-.192,2.276,2.276,0,0,1-1.013.886A4.116,4.116,0,0,1,82.51,416.419Zm-.865-8.277a4.444,4.444,0,0,0,.085,2.043,5.08,5.08,0,0,0,2.839,3.709,3.034,3.034,0,0,0-.116-.709C83.668,410.327,82.175,408.357,81.645,408.142Zm5.572-.872a13.842,13.842,0,0,0,.177,2.058,5.147,5.147,0,0,0,1.519,3.223A15.786,15.786,0,0,0,87.217,407.27Zm6.291-.869h0s-.376.191-.521,1.861.16,2.823.934,3.484a2.6,2.6,0,0,0,.6.379,2.135,2.135,0,0,0,.543-1.028,6.253,6.253,0,0,0-1.2-4.43C93.665,406.443,93.536,406.4,93.508,406.4Z" fill="#263238"/>
        <g id="Group_26" data-name="Group 26">
          <path id="Path_85" data-name="Path 85" d="M228.873,423.978l2.71-4.7-2.71-4.7h-2.9l1.639,4.7-1.639,4.7Z" fill="#263238"/>
          <path id="Path_86" data-name="Path 86" d="M226.163,421.728a2.445,2.445,0,1,1,0-4.89l-4.607-.922-1.223,3.721,2.056,3.139Z" fill="#263238"/>
          <path id="Path_87" data-name="Path 87" d="M226.557,414.578h-5.43l-2.71,4.7,2.71,4.7h5.43l2.71-4.7Zm-2.71,7.15a2.445,2.445,0,1,1,2.44-2.45A2.454,2.454,0,0,1,223.847,421.728Z" fill="#324480"/>
        </g>
        <g id="Group_27" data-name="Group 27">
          <path id="Path_88" data-name="Path 88" d="M417.889,414.265l-2.013-3.491,2.013-3.49h2.155l-1.217,3.49,1.217,3.491Z" fill="#324480"/>
          <path id="Path_89" data-name="Path 89" d="M419.9,412.594a1.816,1.816,0,1,0,0-3.632l3.422-.685.908,2.764-1.527,2.331Z" fill="#324480"/>
          <path id="Path_90" data-name="Path 90" d="M419.61,407.284h4.033l2.012,3.49-2.012,3.491H419.61l-2.013-3.491Zm2.013,5.31a1.816,1.816,0,1,0-1.813-1.82A1.823,1.823,0,0,0,421.623,412.594Z" fill="#263238"/>
        </g>
        <g id="Group_28" data-name="Group 28">
          <path id="Path_91" data-name="Path 91" d="M342.948,418.9h4.518a2.145,2.145,0,0,0,2.139-2.139h0a2.146,2.146,0,0,0-2.139-2.139h-4.518a2.145,2.145,0,0,0-2.139,2.139h0A2.145,2.145,0,0,0,342.948,418.9Z" fill="#263238"/>
          <path id="Path_92" data-name="Path 92" d="M335.73,414.863a4.455,4.455,0,1,1,2,6.18A4.6,4.6,0,0,1,335.73,414.863Z" fill="#324480"/>
          <rect id="Rectangle_9" data-name="Rectangle 9" width="1.37" height="10.102" transform="matrix(-0.905, -0.426, 0.426, -0.905, 338.217, 421.62)" fill="#263238"/>
        </g>
      </g>
    </g>
  </g>
</svg>
