<svg xmlns="http://www.w3.org/2000/svg" xmlns:xlink="http://www.w3.org/1999/xlink" width="502.485" height="336.282" viewBox="0 0 502.485 336.282">
  <defs>
    <radialGradient id="radial-gradient" cx="0.5" cy="0.5" r="0.5" gradientUnits="objectBoundingBox">
      <stop offset="0" stop-color="#a8a8a8"/>
      <stop offset="0.009" stop-color="#a1a1a1"/>
      <stop offset="0.068" stop-color="#7b7b7b"/>
      <stop offset="0.133" stop-color="#5a5a5a"/>
      <stop offset="0.205" stop-color="#3e3e3e"/>
      <stop offset="0.285" stop-color="#272727"/>
      <stop offset="0.377" stop-color="#151515"/>
      <stop offset="0.488" stop-color="#090909"/>
      <stop offset="0.638" stop-color="#020202"/>
      <stop offset="1"/>
    </radialGradient>
  </defs>
  <g id="Group_14393" data-name="Group 14393" transform="translate(-1412 -309)">
    <g id="Group_14389" data-name="Group 14389" transform="translate(1412 309)">
      <path id="Path_58365" data-name="Path 58365" d="M1910.583,564.032h-52.833a206.684,206.684,0,0,0-16.513-142.675H1878.7a3.9,3.9,0,0,0,3.9-3.9h0a3.9,3.9,0,0,0-3.9-3.9h-41.67a205.914,205.914,0,0,0-313.151-55.064h-63.4a3.9,3.9,0,0,0-3.9,3.9h0a3.9,3.9,0,0,0,3.9,3.9h54.792q-6.563,6.3-12.557,13.153H1415.9a3.9,3.9,0,0,0-3.9,3.9h0a3.9,3.9,0,0,0,3.9,3.9h80.33a206.151,206.151,0,0,0-29.7,203.981h-10.279a3.9,3.9,0,0,0-3.9,3.9h0a3.9,3.9,0,0,0,3.9,3.9h13.586q2.129,4.746,4.488,9.363h-46.163a3.9,3.9,0,0,0-3.9,3.9h0a3.9,3.9,0,0,0,3.9,3.9h50.362a206.179,206.179,0,0,0,16.138,24.3H1820.9a205.617,205.617,0,0,0,27.318-47.261h38.291a3.9,3.9,0,0,0,3.9-3.9h0a3.9,3.9,0,0,0-3.9-3.9h-35.262q2.442-6.694,4.428-13.6h54.91a3.9,3.9,0,0,0,3.9-3.9h0A3.9,3.9,0,0,0,1910.583,564.032Z" transform="translate(-1412 -309)" opacity="0.19" fill="url(#radial-gradient)"/>
      <g id="Group_14335" data-name="Group 14335" transform="translate(253.894 13.644)">
        <g id="Group_14330" data-name="Group 14330" transform="translate(0 119.311)">
          <path id="Path_58366" data-name="Path 58366" d="M2815.7,1784.58h-24.941a3.26,3.26,0,0,1,3.26-3.26h18.42a3.26,3.26,0,0,1,3.26,3.26Z" transform="translate(-2737.286 -1586.051)" fill="#253776"/>
          <path id="Path_58367" data-name="Path 58367" d="M2830.385,1357.551h-13.125l4.266-121.573,2.866,1.905Z" transform="translate(-2757.879 -1162.282)" fill="#253776"/>
          <g id="Group_14329" data-name="Group 14329" transform="translate(0)">
            <path id="Path_58368" data-name="Path 58368" d="M2807.376,1784.58h-24.941a3.26,3.26,0,0,1,3.26-3.26h18.42a3.26,3.26,0,0,1,3.26,3.26Z" transform="translate(-2730.817 -1586.051)" fill="#253776"/>
            <g id="Group_14328" data-name="Group 14328">
              <g id="Group_14327" data-name="Group 14327">
                <path id="Path_58369" data-name="Path 58369" d="M2838.373,1232.763,2901.13,1269l-.686-3.567a2.943,2.943,0,0,0-1.089-1.772l-41-31.737a2.944,2.944,0,0,0-2.645-.493l-8.225,2.458a2.944,2.944,0,0,1-2.314-.271l-5.467-3.156Z" transform="translate(-2774.285 -1157.992)" fill="#253776"/>
                <path id="Path_58370" data-name="Path 58370" d="M2613.65,1230.457l-62.757,36.233,3.426,1.188a2.959,2.959,0,0,0,2.09-.057l47.972-19.633a2.96,2.96,0,0,0,1.758-2.055l1.981-8.338a2.959,2.959,0,0,1,1.4-1.879l5.46-3.153Z" transform="translate(-2550.893 -1157.992)" fill="#253776"/>
                <path id="Path_58371" data-name="Path 58371" d="M2806.871,977.863V905.4l-2.744,2.375a2.952,2.952,0,0,0-.993,1.834l-6.984,51.368a2.952,2.952,0,0,0,.9,2.544l6.235,5.889a2.953,2.953,0,0,1,.925,2.146v6.309Z" transform="translate(-2741.454 -905.398)" fill="#253776"/>
                <path id="Path_58372" data-name="Path 58372" d="M2823.4,1357.551h-12.046l4.266-121.573h3.514Z" transform="translate(-2753.292 -1162.282)" fill="#253776"/>
                <circle id="Ellipse_10" data-name="Ellipse 10" cx="3.085" cy="3.085" r="3.085" transform="translate(60.377 75.99) rotate(-76.718)" fill="#253776"/>
              </g>
            </g>
          </g>
          <circle id="Ellipse_11" data-name="Ellipse 11" cx="2.813" cy="2.813" r="2.813" transform="translate(61.065 70.702)" fill="#253776"/>
          <path id="Path_58373" data-name="Path 58373" d="M2552.005,1270.588l59.952-35.569-.054-.042-61.011,35.225Z" transform="translate(-2550.893 -1161.504)" fill="#253776"/>
          <rect id="Rectangle_5073" data-name="Rectangle 5073" width="12.018" height="0.79" transform="translate(58.093 194.479)" fill="#253776"/>
          <path id="Path_58374" data-name="Path 58374" d="M2840.353,906.17l.825,70.2.063-.026V905.4Z" transform="translate(-2775.824 -905.398)" fill="#253776"/>
          <path id="Path_58375" data-name="Path 58375" d="M2906.993,1279.154l-60.78-34.136-.009.067,61.011,35.225Z" transform="translate(-2780.37 -1169.307)" fill="#253776"/>
        </g>
        <g id="Group_14334" data-name="Group 14334" transform="translate(34.815)">
          <path id="Path_58376" data-name="Path 58376" d="M3131.012,1777.75h-39.93a5.22,5.22,0,0,1,5.22-5.22h29.49a5.22,5.22,0,0,1,5.22,5.22Z" transform="translate(-3005.472 -1459.909)" fill="#253776"/>
          <path id="Path_58377" data-name="Path 58377" d="M3154.523,1094.088h-21.012l6.829-194.635,4.589,3.05Z" transform="translate(-3038.443 -781.466)" fill="#253776"/>
          <g id="Group_14333" data-name="Group 14333" transform="translate(0 0)">
            <path id="Path_58378" data-name="Path 58378" d="M3117.686,1777.75h-39.929a5.22,5.22,0,0,1,5.22-5.22h29.49a5.22,5.22,0,0,1,5.22,5.22Z" transform="translate(-2995.117 -1459.909)" fill="#253776"/>
            <g id="Group_14332" data-name="Group 14332">
              <g id="Group_14331" data-name="Group 14331">
                <path id="Path_58379" data-name="Path 58379" d="M3167.312,894.3l100.472,58.008-1.224-6.366a2.947,2.947,0,0,0-1.09-1.774L3198.585,892.4a2.946,2.946,0,0,0-2.647-.493l-14.767,4.412a2.946,2.946,0,0,1-2.317-.272l-9.411-5.433Z" transform="translate(-3064.708 -774.598)" fill="#253776"/>
                <path id="Path_58380" data-name="Path 58380" d="M2807.535,890.613,2707.063,948.62l6.123,2.123a2.952,2.952,0,0,0,2.084-.057l79.68-32.609,4.206-17.7,10.511-6.068Z" transform="translate(-2707.063 -774.598)" fill="#253776"/>
                <path id="Path_58381" data-name="Path 58381" d="M3116.506,486.218V370.2l-4.9,4.241a2.954,2.954,0,0,0-.994,1.835l-11.395,83.805a2.953,2.953,0,0,0,.9,2.545l11.2,10.578a2.954,2.954,0,0,1,.926,2.147v10.864Z" transform="translate(-3011.774 -370.203)" fill="#253776"/>
                <path id="Path_58382" data-name="Path 58382" d="M3143.344,1094.088h-19.285l6.829-194.635h5.626Z" transform="translate(-3031.098 -781.467)" fill="#253776"/>
                <circle id="Ellipse_12" data-name="Ellipse 12" cx="4.939" cy="4.939" r="4.939" transform="translate(96.151 120.659) rotate(-67.5)" fill="#253776"/>
              </g>
            </g>
          </g>
          <circle id="Ellipse_13" data-name="Ellipse 13" cx="4.504" cy="4.504" r="4.504" transform="translate(96.383 120.132) rotate(-67.5)" fill="#253776"/>
          <path id="Path_58383" data-name="Path 58383" d="M2708.844,954.862l95.982-56.945-.086-.067-97.677,56.394Z" transform="translate(-2707.063 -780.222)" fill="#253776"/>
          <rect id="Rectangle_5074" data-name="Rectangle 5074" width="19.24" height="1.265" transform="translate(93.005 311.356)" fill="#253776"/>
          <path id="Path_58384" data-name="Path 58384" d="M3170.481,371.439l1.321,112.385.1-.042V370.2Z" transform="translate(-3067.171 -370.203)" fill="#253776"/>
          <path id="Path_58385" data-name="Path 58385" d="M3277.169,968.576l-97.307-54.651-.014.108,97.677,56.394Z" transform="translate(-3074.449 -792.714)" fill="#253776"/>
        </g>
      </g>
      <g id="Group_14338" data-name="Group 14338" transform="translate(71.066 83.949)">
        <g id="Group_14336" data-name="Group 14336" transform="translate(0 52.74)">
          <rect id="Rectangle_5075" data-name="Rectangle 5075" width="46.751" height="100.559" rx="23.376" fill="#253776"/>
          <path id="Path_58386" data-name="Path 58386" d="M1832.466,1242.936h-2.55V1085.412a1.275,1.275,0,0,1,1.275-1.275h0a1.275,1.275,0,0,1,1.275,1.275Z" transform="translate(-1807.816 -1048.025)" fill="#253776"/>
          <path id="Path_58387" data-name="Path 58387" d="M1808.343,1140.591l-7.091-12.283a1.275,1.275,0,0,0-2.209,1.275l7.091,12.283Z" transform="translate(-1783.692 -1081.853)" fill="#253776"/>
          <path id="Path_58388" data-name="Path 58388" d="M1832.125,1202.045l7.091-12.282a1.275,1.275,0,1,0-2.209-1.275l-7.091,12.283Z" transform="translate(-1807.816 -1128.616)" fill="#253776"/>
        </g>
        <g id="Group_14337" data-name="Group 14337" transform="translate(53.385)">
          <rect id="Rectangle_5076" data-name="Rectangle 5076" width="59.367" height="127.696" rx="29.684" fill="#253776"/>
          <path id="Path_58389" data-name="Path 58389" d="M2099.376,1092.927h-3.239V892.893a1.619,1.619,0,0,1,1.619-1.619h0a1.62,1.62,0,0,1,1.619,1.619Z" transform="translate(-2068.073 -845.417)" fill="#253776"/>
          <path id="Path_58390" data-name="Path 58390" d="M2068.742,962.962l-9-15.6a1.619,1.619,0,1,0-2.8,1.62l9,15.6Z" transform="translate(-2037.439 -888.374)" fill="#253776"/>
          <path id="Path_58391" data-name="Path 58391" d="M2098.942,1041l9.005-15.6a1.619,1.619,0,1,0-2.8-1.619l-9.005,15.6Z" transform="translate(-2068.073 -947.757)" fill="#253776"/>
        </g>
      </g>
      <g id="Group_14346" data-name="Group 14346" transform="translate(81.02 287.5)">
        <g id="Group_14341" data-name="Group 14341">
          <g id="Group_14339" data-name="Group 14339" transform="translate(0 20.141)">
            <path id="Path_58392" data-name="Path 58392" d="M1803.274,1704.108c1.362-1.28,1.985-2.742,1.448-3.77-.665-1.274-2.89-1.469-5.264-.572q.182-.464.337-.956c1.266-4.042.543-7.865-1.615-8.541-2.1-.659-4.792,1.918-6.1,5.791-1.082-4.438-3.861-7.568-6.243-7.007-2.243.528-3.342,4.139-2.621,8.279-3.286-1.451-6.457-1.336-7.468.414-1.046,1.812.583,4.753,3.687,6.9-1.471.493-2.483,1.395-2.622,2.527-.17,1.39,1.021,2.76,2.911,3.606a1.345,1.345,0,0,0-.071.8c.2.838,1.259,1.355,2.647,1.41v0h17.757v-.015a.779.779,0,0,0,.684-.421.618.618,0,0,0-.057-.5,2.023,2.023,0,0,0,1.845-1.064,1.711,1.711,0,0,0-.324-1.561c2.4-.16,4.24-1.211,4.3-2.562C1806.557,1705.676,1805.214,1704.6,1803.274,1704.108Z" transform="translate(-1775.434 -1688.988)" fill="#dfc49c"/>
          </g>
          <g id="Group_14340" data-name="Group 14340" transform="translate(13.553)">
            <path id="Path_58393" data-name="Path 58393" d="M1887.427,1626.447c2.505-2.355,3.65-5.042,2.663-6.934-1.223-2.343-5.314-2.7-9.681-1.052q.335-.853.62-1.759c2.327-7.432,1-14.465-2.969-15.707-3.867-1.211-8.813,3.527-11.215,10.65-1.991-8.163-7.1-13.917-11.482-12.886-4.125.97-6.147,7.612-4.819,15.225-6.044-2.668-11.875-2.456-13.733.762-1.923,3.332,1.073,8.741,6.781,12.683-2.706.907-4.567,2.566-4.822,4.647-.313,2.556,1.878,5.075,5.354,6.632a2.472,2.472,0,0,0-.131,1.477c.363,1.541,2.315,2.492,4.868,2.593v.009h32.656v-.028a1.435,1.435,0,0,0,1.257-.773,1.137,1.137,0,0,0-.105-.929c1.7-.165,2.974-.836,3.394-1.956a3.145,3.145,0,0,0-.6-2.87c4.409-.3,7.8-2.227,7.9-4.713C1893.463,1629.33,1890.993,1627.352,1887.427,1626.447Z" transform="translate(-1836.227 -1598.639)" fill="#9d6827"/>
          </g>
        </g>
        <g id="Group_14342" data-name="Group 14342" transform="translate(278.996 4.729)">
          <path id="Path_58394" data-name="Path 58394" d="M3032.223,1644.611c-2.231-2.1-3.251-4.49-2.371-6.174,1.089-2.086,4.732-2.405,8.62-.937q-.3-.76-.551-1.566c-2.073-6.618-.889-12.88,2.644-13.986,3.443-1.078,7.847,3.14,9.987,9.483,1.772-7.269,6.323-12.392,10.224-11.475,3.673.864,5.474,6.779,4.292,13.557,5.382-2.376,10.574-2.187,12.229.678,1.713,2.967-.955,7.783-6.038,11.293,2.41.808,4.067,2.284,4.293,4.138.278,2.275-1.673,4.519-4.767,5.9a2.2,2.2,0,0,1,.116,1.316c-.323,1.372-2.061,2.219-4.335,2.309v.008h-29.078v-.025a1.278,1.278,0,0,1-1.12-.689,1.013,1.013,0,0,1,.094-.827c-1.511-.146-2.649-.744-3.022-1.742a2.8,2.8,0,0,1,.531-2.556c-3.926-.263-6.943-1.983-7.039-4.2C3026.848,1647.179,3029.046,1645.417,3032.223,1644.611Z" transform="translate(-3026.929 -1619.85)" fill="#9d6827"/>
        </g>
        <g id="Group_14343" data-name="Group 14343" transform="translate(315.336 28.176)">
          <path id="Path_58395" data-name="Path 58395" d="M3192.078,1735.035c-.9-.847-1.313-1.814-.958-2.495.44-.843,1.912-.972,3.483-.378q-.12-.307-.223-.633c-.837-2.674-.359-5.2,1.068-5.651,1.391-.436,3.171,1.269,4.035,3.832.716-2.937,2.554-5.007,4.131-4.636,1.484.349,2.211,2.739,1.734,5.478,2.175-.96,4.272-.884,4.941.274.692,1.2-.386,3.145-2.44,4.563a2.263,2.263,0,0,1,1.735,1.672c.112.92-.676,1.826-1.926,2.386a.891.891,0,0,1,.047.531c-.13.554-.833.9-1.751.933v0H3194.2v-.01a.516.516,0,0,1-.453-.278.409.409,0,0,1,.038-.334,1.338,1.338,0,0,1-1.221-.7,1.132,1.132,0,0,1,.215-1.033c-1.586-.106-2.805-.8-2.844-1.7C3189.906,1736.073,3190.794,1735.361,3192.078,1735.035Z" transform="translate(-3189.939 -1725.03)" fill="#dfc49c"/>
        </g>
        <g id="Group_14344" data-name="Group 14344" transform="translate(171.096 6.991)">
          <path id="Path_58396" data-name="Path 58396" d="M2547.913,1653.34c-2.1-1.976-3.063-4.232-2.235-5.82,1.026-1.967,4.46-2.267,8.126-.883q-.281-.717-.52-1.476c-1.953-6.238-.838-12.141,2.492-13.184,3.246-1.016,7.4,2.96,9.414,8.939,1.671-6.851,5.959-11.681,9.637-10.816,3.462.814,5.159,6.389,4.045,12.779,5.073-2.239,9.967-2.061,11.527.64,1.614,2.8-.9,7.336-5.692,10.645,2.271.762,3.833,2.153,4.047,3.9.262,2.145-1.577,4.26-4.493,5.566a2.075,2.075,0,0,1,.11,1.24c-.3,1.293-1.943,2.092-4.086,2.176v.007h-27.409v-.024a1.2,1.2,0,0,1-1.055-.649.954.954,0,0,1,.089-.779c-1.425-.138-2.5-.7-2.849-1.642a2.641,2.641,0,0,1,.5-2.409c-3.7-.248-6.544-1.869-6.635-3.956C2542.846,1655.76,2544.919,1654.1,2547.913,1653.34Z" transform="translate(-2542.923 -1630)" fill="#dfc49c"/>
        </g>
        <g id="Group_14345" data-name="Group 14345" transform="translate(203.69 23.057)">
          <path id="Path_58397" data-name="Path 58397" d="M2691.956,1715.286c-1.191-1.119-1.735-2.4-1.266-3.3.581-1.114,2.526-1.284,4.6-.5q-.159-.406-.294-.836c-1.106-3.533-.474-6.877,1.412-7.467,1.839-.576,4.19,1.677,5.332,5.063.946-3.881,3.376-6.617,5.459-6.127,1.961.461,2.922,3.619,2.291,7.238,2.873-1.269,5.646-1.168,6.529.362.915,1.584-.51,4.155-3.224,6.029a2.991,2.991,0,0,1,2.292,2.209c.148,1.215-.893,2.413-2.545,3.153a1.175,1.175,0,0,1,.062.7c-.172.733-1.1,1.185-2.314,1.233v0h-15.525v-.013a.682.682,0,0,1-.6-.368.541.541,0,0,1,.05-.441,1.768,1.768,0,0,1-1.614-.93,1.5,1.5,0,0,1,.284-1.365c-2.1-.14-3.707-1.059-3.758-2.24C2689.086,1716.657,2690.26,1715.717,2691.956,1715.286Z" transform="translate(-2689.13 -1702.066)" fill="#dfc49c"/>
        </g>
      </g>
      <g id="Group_14347" data-name="Group 14347" transform="translate(174.462 84.022)">
        <path id="Path_58398" data-name="Path 58398" d="M2731.49,918.357a1.84,1.84,0,0,0-.549.084c.006-.091.01-.184.01-.277a3.869,3.869,0,0,0-7.592-1.05,2.507,2.507,0,1,0-.682,4.919c.044,0,.087,0,.131,0v0h8.682a1.838,1.838,0,1,0,0-3.675Z" transform="translate(-2603.002 -863.378)" fill="#e6e6e6"/>
        <path id="Path_58399" data-name="Path 58399" d="M2315.52,698.632a5.544,5.544,0,0,0-2.86.79,8.444,8.444,0,0,0-8.223-6.534,8.535,8.535,0,0,0-1.041.066,11.94,11.94,0,0,0-22.835,4.882c0,.07,0,.14,0,.211a6.159,6.159,0,1,0-2.631,11.727h37.589a5.571,5.571,0,1,0,0-11.142Z" transform="translate(-2254.566 -685.898)" fill="#e6e6e6"/>
        <path id="Path_58400" data-name="Path 58400" d="M2198.251,1308.924a3.645,3.645,0,0,1,1.882.52,5.554,5.554,0,0,1,5.409-4.3,5.633,5.633,0,0,1,.685.043,7.854,7.854,0,0,1,15.021,3.211c0,.046,0,.093,0,.139a4.051,4.051,0,1,1,1.731,7.714h-24.726a3.665,3.665,0,1,1,0-7.329Z" transform="translate(-2194.586 -1163.523)" fill="#e6e6e6"/>
      </g>
      <g id="Group_14388" data-name="Group 14388" transform="translate(77.002 276.634)">
        <g id="Group_14355" data-name="Group 14355" transform="translate(339.395 32.747)">
          <g id="Group_14352" data-name="Group 14352" transform="translate(0.74)">
            <g id="Group_14351" data-name="Group 14351">
              <g id="Group_14350" data-name="Group 14350">
                <g id="Group_14349" data-name="Group 14349">
                  <g id="Group_14348" data-name="Group 14348">
                    <path id="Path_58401" data-name="Path 58401" d="M3290.083,1697.014l-.058.222a6.724,6.724,0,0,1-.534,1.308,4.8,4.8,0,0,1-4.71,2.78,6.681,6.681,0,0,1-1.4-.165l-.223-.056.058-.222a6.715,6.715,0,0,1,.534-1.308,4.8,4.8,0,0,1,4.71-2.78,6.717,6.717,0,0,1,1.4.165Zm-6.357,3.751a4.691,4.691,0,1,0,2.173-2.927A5.6,5.6,0,0,0,3283.726,1700.765Z" transform="translate(-3283.155 -1696.792)" fill="#e4e4e4"/>
                  </g>
                </g>
              </g>
            </g>
          </g>
          <g id="Group_14354" data-name="Group 14354" transform="translate(0 1.842)">
            <g id="Group_14353" data-name="Group 14353">
              <path id="Path_58402" data-name="Path 58402" d="M3284.32,1708.77a2.458,2.458,0,1,1,3.2-3.156A6.647,6.647,0,0,1,3284.32,1708.77Z" transform="translate(-3279.836 -1705.056)" fill="#f2f2f2"/>
            </g>
          </g>
        </g>
        <g id="Group_14363" data-name="Group 14363" transform="translate(331.626 7.481)">
          <g id="Group_14360" data-name="Group 14360" transform="translate(0.594)">
            <g id="Group_14359" data-name="Group 14359">
              <g id="Group_14358" data-name="Group 14358">
                <g id="Group_14357" data-name="Group 14357">
                  <g id="Group_14356" data-name="Group 14356">
                    <path id="Path_58403" data-name="Path 58403" d="M3254.771,1583.455l0,.286a8.355,8.355,0,0,1-.249,1.74,5.967,5.967,0,0,1-4.842,4.78,8.345,8.345,0,0,1-1.743.226h-.285l0-.286a8.374,8.374,0,0,1,.249-1.74,5.968,5.968,0,0,1,4.842-4.78,8.361,8.361,0,0,1,1.743-.226Zm-6.534,6.451a5.835,5.835,0,1,0,1.736-4.189A6.968,6.968,0,0,0,3248.236,1589.906Z" transform="translate(-3247.649 -1583.454)" fill="#e4e4e4"/>
                  </g>
                </g>
              </g>
            </g>
          </g>
          <g id="Group_14362" data-name="Group 14362" transform="translate(0 2.53)">
            <g id="Group_14361" data-name="Group 14361">
              <path id="Path_58404" data-name="Path 58404" d="M3250.474,1599.674a3.058,3.058,0,1,1,2.9-4.776A8.271,8.271,0,0,1,3250.474,1599.674Z" transform="translate(-3244.984 -1594.803)" fill="#f2f2f2"/>
            </g>
          </g>
        </g>
        <g id="Group_14371" data-name="Group 14371" transform="translate(43.5)">
          <g id="Group_14368" data-name="Group 14368">
            <g id="Group_14367" data-name="Group 14367">
              <g id="Group_14366" data-name="Group 14366">
                <g id="Group_14365" data-name="Group 14365">
                  <g id="Group_14364" data-name="Group 14364">
                    <path id="Path_58405" data-name="Path 58405" d="M1954.143,1549.9l.181.155a6.947,6.947,0,0,1,.978,1.09,4.973,4.973,0,0,1,.461,5.651,6.965,6.965,0,0,1-.788,1.234l-.153.182-.181-.155a6.944,6.944,0,0,1-.978-1.09,4.972,4.972,0,0,1-.461-5.651,6.96,6.96,0,0,1,.788-1.234Zm.622,7.626a4.862,4.862,0,1,0-1.746-3.351A5.8,5.8,0,0,0,1954.765,1557.524Z" transform="translate(-1952.534 -1549.898)" fill="#e4e4e4"/>
                  </g>
                </g>
              </g>
            </g>
          </g>
          <g id="Group_14370" data-name="Group 14370" transform="translate(1.358 0.973)">
            <g id="Group_14369" data-name="Group 14369">
              <path id="Path_58406" data-name="Path 58406" d="M1962.41,1558.671a2.548,2.548,0,1,1-1.5-4.409A6.893,6.893,0,0,1,1962.41,1558.671Z" transform="translate(-1958.624 -1554.262)" fill="#f2f2f2"/>
            </g>
          </g>
        </g>
        <g id="Group_14379" data-name="Group 14379" transform="translate(0 26.424)">
          <g id="Group_14376" data-name="Group 14376" transform="translate(0 0.593)">
            <g id="Group_14375" data-name="Group 14375">
              <g id="Group_14374" data-name="Group 14374">
                <g id="Group_14373" data-name="Group 14373">
                  <g id="Group_14372" data-name="Group 14372">
                    <path id="Path_58407" data-name="Path 58407" d="M1757.407,1671.105l.2-.013a5.865,5.865,0,0,1,1.228.082,4.18,4.18,0,0,1,3.6,3.129,5.844,5.844,0,0,1,.25,1.205l.015.2-.2.013a5.87,5.87,0,0,1-1.228-.082,4.18,4.18,0,0,1-3.6-3.129,5.844,5.844,0,0,1-.25-1.205Zm4.852,4.223a4.088,4.088,0,1,0-3.018-.99A4.88,4.88,0,0,0,1762.259,1675.328Z" transform="translate(-1757.407 -1671.087)" fill="#e4e4e4"/>
                  </g>
                </g>
              </g>
            </g>
          </g>
          <g id="Group_14378" data-name="Group 14378" transform="translate(1.781)">
            <g id="Group_14377" data-name="Group 14377">
              <path id="Path_58408" data-name="Path 58408" d="M1768.9,1670.2a2.142,2.142,0,1,1-3.49-1.774A5.8,5.8,0,0,1,1768.9,1670.2Z" transform="translate(-1765.398 -1668.428)" fill="#f2f2f2"/>
            </g>
          </g>
        </g>
        <g id="Group_14387" data-name="Group 14387" transform="translate(279.524 20.346)">
          <g id="Group_14384" data-name="Group 14384" transform="translate(0 0.597)">
            <g id="Group_14383" data-name="Group 14383">
              <g id="Group_14382" data-name="Group 14382">
                <g id="Group_14381" data-name="Group 14381">
                  <g id="Group_14380" data-name="Group 14380">
                    <path id="Path_58409" data-name="Path 58409" d="M3011.271,1643.846l.224-.006a6.579,6.579,0,0,1,1.373.148,4.69,4.69,0,0,1,3.888,3.672,6.55,6.55,0,0,1,.226,1.363l.007.224-.224.006a6.542,6.542,0,0,1-1.374-.148,4.691,4.691,0,0,1-3.888-3.672,6.571,6.571,0,0,1-.226-1.363Zm5.247,4.956a4.586,4.586,0,1,0-3.339-1.248A5.477,5.477,0,0,0,3016.518,1648.8Z" transform="translate(-3011.271 -1643.84)" fill="#e4e4e4"/>
                  </g>
                </g>
              </g>
            </g>
          </g>
          <g id="Group_14386" data-name="Group 14386" transform="translate(2)">
            <g id="Group_14385" data-name="Group 14385">
              <path id="Path_58410" data-name="Path 58410" d="M3024.117,1643.31a2.4,2.4,0,1,1-3.832-2.148A6.5,6.5,0,0,1,3024.117,1643.31Z" transform="translate(-3020.242 -1641.162)" fill="#f2f2f2"/>
            </g>
          </g>
        </g>
      </g>
    </g>
    <g id="Group_14392" data-name="Group 14392" transform="translate(1481.685 468.172)">
      <g id="Group_14390" data-name="Group 14390" transform="translate(99.834 0)">
        <path id="Path_58411" data-name="Path 58411" d="M2371.185,1181.641H2267.54l1.885-6.828,3.683-13.332,2.23-8.072,3.288-11.9,6.339-22.942,3.288-11.9L2311.367,1023h15.99l8.471,30.663,14.643,53,3.288,11.9,6.339,22.942,3.288,11.9,5.913,21.4Z" transform="translate(-2246.333 -1023)" fill="#dfc49c"/>
        <path id="Path_58412" data-name="Path 58412" d="M2371.185,1288.523H2267.54l1.885-6.828,3.683-13.331c72.224-4.266,62.72-107.819,62.72-107.819L2369.3,1281.7Z" transform="translate(-2246.333 -1129.882)" fill="#cba363"/>
        <path id="Path_58418" data-name="Path 58418" d="M0,0H146.058V13.887H0Z" transform="translate(0 158.641)" fill="#cba363"/>
        <path id="Path_58413" data-name="Path 58413" d="M2371.185,1710.818H2267.54l1.885-6.827H2369.3Z" transform="translate(-2246.333 -1552.177)" fill="#f5f5f5"/>
        <path id="Path_58414" data-name="Path 58414" d="M2463.284,1451.686s-2.171,45.806-54.8,56.284l70.339-.038Z" transform="translate(-2355.857 -1356.119)" fill="#9d6827"/>
        <path id="Path_58415" data-name="Path 58415" d="M2414.5,1410.2H2345.7l3.288-11.9h62.219Z" transform="translate(-2307.072 -1314.635)" fill="#fff"/>
        <path id="Path_58416" data-name="Path 58416" d="M2390.57,1566.5h-88.048l3.288-11.9h81.472Z" transform="translate(-2273.517 -1436.087)" fill="#fff"/>
        <path id="Path_58417" data-name="Path 58417" d="M2358.608,1734.616s-19.36,14.616-91.068,13.887h124.851v-13.887Z" transform="translate(-2246.333 -1575.975)" fill="#9d6827"/>
      </g>
      <g id="Group_14391" data-name="Group 14391" transform="translate(0 172.347)" opacity="0.16">
        <rect id="Rectangle_5078" data-name="Rectangle 5078" width="195.708" height="4.763" rx="2.381" transform="translate(73.991)"/>
        <rect id="Rectangle_5079" data-name="Rectangle 5079" width="35.627" height="4.763" rx="2.381" transform="translate(46.681)"/>
        <rect id="Rectangle_5080" data-name="Rectangle 5080" width="37.193" height="4.763" rx="2.381"/>
        <rect id="Rectangle_5081" data-name="Rectangle 5081" width="31.372" height="4.763" rx="2.381" transform="translate(279.565)"/>
        <rect id="Rectangle_5082" data-name="Rectangle 5082" width="24.985" height="4.763" rx="2.381" transform="translate(320.824)"/>
      </g>
    </g>
  </g>
</svg>
