<svg xmlns="http://www.w3.org/2000/svg" width="878.1" height="407.454" viewBox="0 0 878.1 407.454">
  <g id="Group_14781" data-name="Group 14781" transform="translate(114.598 -188.238)">
    <g id="img" transform="translate(-36.6 -110)">
      <path id="Path_5" data-name="Path 5" d="M918.469,429.9H56.6c-4.462,0-8.114-1.676-8.114-3.725h0c0-2.048,3.652-3.724,8.114-3.724H918.469c4.462,0,8.114,1.676,8.114,3.724h0C926.583,428.221,922.932,429.9,918.469,429.9Z" transform="translate(-126.48 234.813)" fill="#edeef2"/>
      <path id="Path_58419" data-name="Path 58419" d="M476.4,871.427c114.446-7.694,121.193,24.13,195.215,27.357C739.366,901.737,795.638,865,795.313,796.851a50.4,50.4,0,0,1,12.9-34.352c24.872-27.19,28.866-60.69,21.291-95.492-3.731-17.142-15.019-31.462-31.388-42.727a50.563,50.563,0,0,1-22.023-37.212c-1.053-12.691-5.169-23.683-12.637-32.357-24.87-28.888-79.4-30.389-140.78,4.578-12.987,7.4-28.444,9.143-48.761,4.571-73.812-16.608-129.129,24.4-124.951,97.522,1.016,17.777-3.048,34.539-14.254,53.163C392.772,784.241,429.406,874.587,476.4,871.427Z" transform="matrix(-0.995, -0.105, 0.105, -0.995, 926.085, 1279.33)" fill="#e3eaf3"/>
      <g id="Background_Complete" data-name="Background Complete" transform="translate(42.521 288.218)">
        <g id="Group_1" data-name="Group 1" transform="translate(4.443 17.804)">
          <path id="Path_1" data-name="Path 1" d="M60.8,67.63l16.855-.358,8.554-.144c2.859-.06,5.731-.048,8.6-.071l.569,0,0,.577L95.45,82l0,.645-.645,0-17-.081c-5.667-.006-11.334-.144-17-.209l-.353,0,0-.347c.024-2.439.11-4.863.168-7.261Zm0,0,.182,7.261c.058,2.392.144,4.757.168,7.109l-.351-.351c5.668-.065,11.335-.2,17-.211l17-.081L94.167,82l.069-14.37.573.573c-2.8-.023-5.6-.01-8.406-.071l-8.449-.144Z" transform="translate(-41.48 -48.933)" fill="#ebebeb"/>
          <path id="Path_2" data-name="Path 2" d="M75.575,53.52l16.855-.357,8.554-.144c2.857-.062,5.731-.049,8.6-.071l.57-.005,0,.577.069,14.37,0,.645-.645,0-17-.08c-5.667-.006-11.335-.145-17-.211l-.354,0,0-.347c.024-2.439.11-4.863.168-7.261Zm0,0,.182,7.261c.058,2.392.144,4.758.168,7.109l-.351-.351c5.667-.065,11.335-.2,17-.211l17-.08-.641.641.069-14.37.571.573c-2.8-.023-5.6-.01-8.4-.071l-8.449-.144Z" transform="translate(-37.283 -52.943)" fill="#ebebeb"/>
          <path id="Path_3" data-name="Path 3" d="M101.254,197.285l16.855-.358,8.554-.144c2.859-.06,5.731-.048,8.6-.071l.569,0,0,.577.069,14.369,0,.645-.645,0-17-.081c-5.667-.006-11.334-.144-17-.211l-.353,0,0-.347c.024-2.437.11-4.862.168-7.259Zm0,0,.182,7.259c.058,2.392.144,4.758.168,7.109l-.351-.349c5.668-.067,11.335-.2,17-.211l17-.081-.642.641.069-14.369.573.571c-2.8-.022-5.6-.01-8.406-.071l-8.449-.144Z" transform="translate(-29.986 -12.09)" fill="#ebebeb"/>
          <path id="Path_4" data-name="Path 4" d="M116.026,183.175l16.855-.358,8.554-.144c2.857-.06,5.731-.048,8.6-.071l.57,0,0,.577.069,14.369,0,.645-.645,0-17-.081c-5.667-.006-11.335-.144-17-.209l-.354-.005,0-.347c.024-2.437.11-4.862.168-7.259Zm0,0,.182,7.259c.058,2.392.144,4.758.168,7.109l-.351-.349c5.667-.066,11.335-.2,17-.211l17-.081-.641.641.069-14.369.571.573c-2.8-.023-5.6-.01-8.4-.071l-8.45-.145Z" transform="translate(-1.155 -16.099)" fill="#ebebeb"/>
          <path id="Path_5-2" data-name="Path 5" d="M46.031,53.52l16.855-.357,8.554-.144c2.859-.062,5.731-.049,8.6-.071l.569-.005,0,.577.068,14.37,0,.645-.645,0-17-.08c-5.668-.006-11.335-.145-17-.211l-.354,0,0-.347c.023-2.439.109-4.863.167-7.261Zm0,0,.182,7.261c.059,2.392.145,4.758.168,7.109l-.349-.351c5.667-.065,11.334-.2,17-.211l17-.08-.641.641.068-14.37.573.573c-2.8-.023-5.6-.01-8.406-.071l-8.449-.144Z" transform="translate(-45.678 -52.943)" fill="#ebebeb"/>
          <path id="Path_6" data-name="Path 6" d="M446.943,299.737l-16.855.357-8.554.145c-2.859.06-5.731.047-8.6.071l-.569,0,0-.577-.068-14.37,0-.645.645,0,17,.08c5.668.006,11.335.145,17,.211l.353,0,0,.347c-.024,2.439-.11,4.863-.168,7.261Zm0,0-.182-7.261c-.058-2.392-.144-4.758-.168-7.109l.351.351c-5.668.066-11.335.2-17,.211l-17,.08.642-.641-.069,14.37-.573-.573c2.8.023,5.6.01,8.406.071l8.449.144Z" transform="translate(192.723 12.921)" fill="#ebebeb"/>
          <path id="Path_7" data-name="Path 7" d="M461.713,313.847l-16.853.357-8.554.144c-2.859.06-5.731.049-8.6.071l-.57.005,0-.578-.069-14.368,0-.645.645,0,17,.081c5.668.006,11.335.145,17,.211l.354,0,0,.347c-.023,2.439-.109,4.862-.168,7.261Zm0,0-.182-7.261c-.058-2.392-.144-4.758-.168-7.109l.351.351c-5.667.065-11.334.2-17,.209l-17,.081.641-.641-.068,14.368-.573-.571c2.8.022,5.6.01,8.406.071l8.449.144Z" transform="translate(196.921 16.931)" fill="#ebebeb"/>
          <path id="Path_8" data-name="Path 8" d="M95.1,313.847l-16.855.357-8.554.144c-2.857.06-5.731.049-8.6.071l-.57.005,0-.578-.069-14.368,0-.645.645,0,17,.081c5.667.006,11.335.145,17,.211l.354,0,0,.347c-.024,2.439-.11,4.862-.168,7.261Zm0,0-.182-7.261c-.058-2.392-.144-4.758-.168-7.109l.351.351c-5.667.065-11.335.2-17,.209l-17,.081.641-.641-.069,14.368-.571-.571c2.8.022,5.6.01,8.4.071l8.449.144Z" transform="translate(-41.48 16.931)" fill="#ebebeb"/>
          <path id="Path_9" data-name="Path 9" d="M412.759,53.52l16.855-.357,8.554-.144c2.857-.062,5.731-.049,8.6-.071l.569-.005,0,.577.069,14.37,0,.645-.643,0-17-.08c-5.667-.006-11.334-.145-17-.211l-.354,0,0-.347c.024-2.439.11-4.863.168-7.261Zm0,0,.182,7.261c.058,2.392.144,4.758.168,7.109l-.351-.351c5.668-.065,11.335-.2,17-.211l17-.08-.642.641.069-14.37.573.573c-2.8-.023-5.6-.01-8.406-.071l-8.449-.144Z" transform="translate(192.755 -52.943)" fill="#ebebeb"/>
        </g>
      </g>
      <g id="Plant" transform="translate(75.191 471.689)">
        <g id="Group_29" data-name="Group 29" transform="translate(40)">
          <g id="Group_26" data-name="Group 26">
            <g id="Group_19" data-name="Group 19" transform="translate(0 61.747)">
              <path id="Path_15" data-name="Path 15" d="M411.47,336.736s-21.307-4.83-32.985-15.59-18.2-30.038-18.2-30.038a183.515,183.515,0,0,1,23.9,6.277c1.9,2.039,5.536,6.242,7.229,10.222a49.179,49.179,0,0,0,.057-7.308,32.471,32.471,0,0,1,7.587,4.606C408.735,313.379,411.47,336.736,411.47,336.736Z" transform="translate(-360.283 -291.108)" fill="#cba363"/>
              <g id="Group_18" data-name="Group 18" transform="translate(4.477 3.083)">
                <path id="Path_16" data-name="Path 16" d="M372.6,299.8c-2.9-2.01-5.862-3.948-8.753-5.977a.167.167,0,0,1,.175-.284c5.491,3.28,10.9,6.784,16.139,10.456,1.826,1.279,3.619,2.612,5.391,3.969q-.185-.316-.371-.632c-.64-1.07-1.314-2.12-1.987-3.169a45.366,45.366,0,0,0-4.524-6.037c-.063-.069.045-.171.105-.1,1.657,1.913,3.314,3.806,4.83,5.836.72.964,1.386,1.964,2.024,2.986q.5.794.958,1.609c.1.181.214.365.32.55,2.755,2.164,5.437,4.419,8,6.8q2.369,2.208,4.577,4.573c-.823-2.579-1.544-5.185-2.5-7.726-.032-.086.109-.123.14-.035.928,2.663,1.943,5.338,2.661,8.075,1.632,1.763,3.194,3.591,4.663,5.491-.024-.116-.049-.232-.076-.347-.241-1-.493-2.006-.763-3-.519-1.929-1.084-3.844-1.734-5.731a33.3,33.3,0,0,0-5.725-10.81c-.059-.072.045-.172.105-.1,4.162,4.927,6.6,10.835,8.161,17.038.227.908.442,1.82.65,2.731.109.483.236.976.318,1.473.645.871,1.276,1.749,1.881,2.651a92.246,92.246,0,0,1,9.015,17.679,204.053,204.053,0,0,1,6.829,21.288c.039.141-.173.19-.218.054-4.167-12.468-8.423-25.113-15.556-36.257-1.506-2.354-3.136-4.62-4.864-6.807A40.218,40.218,0,0,1,392.1,323.98a45.819,45.819,0,0,1-10.384-5.015,63.625,63.625,0,0,1-5.323-4.019.072.072,0,1,1,.091-.112,42.508,42.508,0,0,0,9.766,5.908A53.248,53.248,0,0,0,397,324.348c1.573.343,3.168.6,4.764.813a90.282,90.282,0,0,0-6.283-6.961c-.718-.718-1.464-1.4-2.2-2.1a50.364,50.364,0,0,0-7.877-4.511c-3.49-1.687-6.927-3.475-10.382-5.233-1.949-.99-3.886-2.006-5.851-2.965-.083-.041-.008-.164.076-.123,3.5,1.691,7.058,3.272,10.593,4.891,3.327,1.524,6.693,3.052,9.885,4.846.137.078.266.162.4.24-2.886-2.512-5.873-4.907-8.93-7.216C378.372,303.9,375.508,301.81,372.6,299.8Z" transform="translate(-363.769 -293.509)" fill="#263238"/>
                <path id="Path_17" data-name="Path 17" d="M371.605,306.96c1.734.759,3.5,1.432,5.212,2.233,1.764.824,3.435,1.79,5.11,2.782.073.044.005.146-.068.112-1.7-.813-3.42-1.573-5.1-2.421-1.723-.867-3.427-1.793-5.194-2.567C371.48,307.062,371.521,306.922,371.605,306.96Z" transform="translate(-361.567 -289.688)" fill="#263238"/>
              </g>
            </g>
            <g id="Group_21" data-name="Group 21" transform="translate(54.741)">
              <path id="Path_18" data-name="Path 18" d="M466.278,243.025a30.444,30.444,0,0,0-6.367,17.7c-.071,1.911.231,4.573.452,7.7-7.944,4.242-13.9,11.882-13.9,11.882,4.514-2.711,10.709-3.806,14.051-3.363a42.281,42.281,0,0,1-.814,6.367c-1.476-.085-4.325.113-9.037,1.788a20.225,20.225,0,0,1,8.148,1.619c-3.8,12.083-15.088,24.5-46.262,29.768a65.414,65.414,0,0,1,5.522-43.87C427.409,254.243,466.278,243.025,466.278,243.025Z" transform="translate(-400.618 -243.025)" fill="#cba363"/>
              <g id="Group_20" data-name="Group 20" transform="translate(0 8.312)">
                <path id="Path_19" data-name="Path 19" d="M404.047,366.351q.813-7.744,2.02-15.44a308.3,308.3,0,0,1,6.286-30.516,122.529,122.529,0,0,1,4.5-13.9,21.1,21.1,0,0,1-.114-2.5q-.033-1.5-.015-2.995.035-3,.286-5.98a71.416,71.416,0,0,1,1.916-11.689c.569-2.22,1.232-4.407,1.884-6.6a.072.072,0,0,1,.139.041,85.88,85.88,0,0,0-2.3,11.667,109.516,109.516,0,0,0-1.047,11.7q-.058,1.606-.06,3.214c0,.455.019.916.036,1.378a100.275,100.275,0,0,1,5.254-10.873A132.176,132.176,0,0,1,433.5,277.89a6.745,6.745,0,0,1,.255-1.744q.22-1.044.453-2.086.48-2.138,1.063-4.249c.776-2.824,1.8-5.555,2.681-8.343a.073.073,0,0,1,.139.042c-.823,2.761-1.37,5.621-2,8.432-.312,1.389-.616,2.781-.923,4.174q-.229,1.042-.444,2.089c-.01.049-.019.1-.028.155q1.89-2.385,3.86-4.7c5.953-6.979,12.48-13.42,19.049-19.813.808-.787,1.635-1.553,2.454-2.327.068-.065.164.037.1.1-6.278,6.549-12.46,13.174-18.315,20.109q-2.086,2.471-4.105,5c.708-.48,1.423-.948,2.127-1.409,1.813-1.188,3.651-2.342,5.542-3.4s3.8-2.1,5.741-3.059c2-.99,4.135-1.8,6.065-2.919.082-.049.154.092.069.127a45.109,45.109,0,0,0-5.689,3.151c-1.9,1.125-3.791,2.258-5.654,3.44-1.833,1.162-3.674,2.308-5.494,3.49-1.518.985-3.01,2.061-4.582,2.972a147.146,147.146,0,0,0-9.988,14.537,107.11,107.11,0,0,0-5.162,9.79c.374-.163.75-.321,1.119-.485l2.853-1.267c1.834-.814,3.677-1.608,5.516-2.408,3.5-1.52,7.047-2.918,10.476-4.586a47.278,47.278,0,0,0,5.6-3.108c.078-.053.146.075.071.127-6.391,4.406-13.558,7.51-20.633,10.641l-3.068,1.357c-.842.372-1.686.79-2.554,1.116a109.127,109.127,0,0,0-5.273,14.447,293.745,293.745,0,0,0-6.782,30.159c-1.789,10.182-3,20.434-3.933,30.725-.117,1.285-.231,2.568-.378,3.851a.406.406,0,0,1-.812-.019C402.967,376.779,403.5,371.544,404.047,366.351Z" transform="translate(-402.911 -249.498)" fill="#263238"/>
                <path id="Path_20" data-name="Path 20" d="M418.82,275.536c.571-3.169,1.415-6.268,2.269-9.369.024-.091.162-.049.139.041-.789,3.046-1.352,6.15-1.925,9.242q-.875,4.723-1.542,9.487c-.008.055-.091.055-.087,0A83.476,83.476,0,0,1,418.82,275.536Z" transform="translate(-398.716 -244.775)" fill="#263238"/>
                <path id="Path_21" data-name="Path 21" d="M429.047,281.732a56.057,56.057,0,0,1,6.779-3.815c1.136-.588,2.287-1.145,3.439-1.7,1.185-.575,2.419-1.056,3.6-1.646.083-.042.154.085.071.127-1.14.571-2.222,1.264-3.341,1.875-1.154.629-2.3,1.27-3.462,1.893-2.279,1.224-4.52,2.581-6.913,3.574A.174.174,0,0,1,429.047,281.732Z" transform="translate(-395.508 -242.376)" fill="#263238"/>
              </g>
            </g>
            <g id="Group_23" data-name="Group 23" transform="translate(10.347 16.342)">
              <path id="Path_22" data-name="Path 22" d="M408.787,309.845s-19.716-4.709-28.769-17.936c-8.645-12.63-11.438-34.161-11.66-36.056.354,1.737,4.423,20.556,17.846,29.32C396.48,291.892,406.41,297.412,408.787,309.845Z" transform="translate(-368.335 -255.722)" fill="#263238" opacity="0.1"/>
              <path id="Path_23" data-name="Path 23" d="M385.7,271.375a25.191,25.191,0,0,1,7.268,11.974c.01.04-.049.06-.062.021a29.434,29.434,0,0,0-7.3-11.885C385.533,271.42,385.629,271.311,385.7,271.375Z" transform="translate(-363.442 -251.317)" fill="#263238"/>
              <g id="Group_22" data-name="Group 22">
                <path id="Path_24" data-name="Path 24" d="M408.792,309.875s-19.716-4.709-28.769-17.936c-8.645-12.63-11.438-34.161-11.66-36.056a1.146,1.146,0,0,1-.023-.132s9.454,13.441,19.393,16.869S411.642,287.905,408.792,309.875Z" transform="translate(-368.34 -255.751)" fill="#cba363"/>
                <path id="Path_25" data-name="Path 25" d="M371.09,261.532a80.4,80.4,0,0,0,6.095,10.422A41.8,41.8,0,0,0,385.3,280.3c2.677,2.127,5.509,4.054,8.22,6.14-.021-.032-.04-.067-.06-.1-.509-.756-1.053-1.49-1.614-2.207-1.129-1.442-2.364-2.8-3.6-4.15-2.45-2.657-4.95-5.265-7.146-8.143a30.008,30.008,0,0,1-3.162-5.093c-.041-.082.1-.128.137-.046,3.2,6.664,9.584,10.927,14.141,16.555a28.863,28.863,0,0,1,1.822,2.491,10.313,10.313,0,0,1,1.135,2,41.437,41.437,0,0,1,6.725,6.8,27.17,27.17,0,0,0-.791-3.828,19.288,19.288,0,0,0-2.089-4.993c-.049-.08.073-.159.121-.08a23.577,23.577,0,0,1,2.3,4.961,17.346,17.346,0,0,1,.717,4.258l.01.013a38.753,38.753,0,0,1,2.665,4.141c-.082-.421-.162-.842-.245-1.262-.39-1.965-.824-3.924-1.334-5.862a35.1,35.1,0,0,0-4.742-11.107.073.073,0,0,1,.121-.081,42.254,42.254,0,0,1,5.255,10.868c.628,1.934,1.131,3.9,1.574,5.887.216.97.411,1.943.6,2.92.1.5.205,1.02.288,1.54a70.95,70.95,0,0,1,4.547,13.366,196.456,196.456,0,0,1,4.2,24.928,207.4,207.4,0,0,1,1.36,26.471c-.018,1.108-.083,2.215-.145,3.322-.017.286-.443.327-.457.027-.193-4.375-.307-8.753-.565-13.124s-.64-8.74-1.108-13.1a232.568,232.568,0,0,0-4.109-25.489c-1.6-7.209-3.671-14.464-7.61-20.779a39.075,39.075,0,0,0-7.113-8.459c-2.765-2.482-5.786-4.656-8.7-6.954a47.757,47.757,0,0,1-7.984-7.675,62.731,62.731,0,0,1-6.271-10.177c-.465-.894-.943-1.781-1.413-2.671C370.925,261.529,371.047,261.449,371.09,261.532Z" transform="translate(-367.596 -254.118)" fill="#263238"/>
                <path id="Path_26" data-name="Path 26" d="M373.743,263.785a66.52,66.52,0,0,0,4.393,7.681.055.055,0,0,1-.091.06,53.61,53.61,0,0,1-4.439-7.693C373.566,263.747,373.7,263.7,373.743,263.785Z" transform="translate(-366.846 -253.481)" fill="#263238"/>
              </g>
            </g>
            <g id="Group_25" data-name="Group 25" transform="translate(55.474 61.747)">
              <path id="Path_27" data-name="Path 27" d="M468.034,291.108s.312,28.019-16.441,36.107-25.735,1.351-37.118,4.061a.035.035,0,0,0,.021-.014c.44-.668,8.565-12.346,21.488-15.562C449.275,312.385,464,302.784,468.034,291.108Z" transform="translate(-400.357 -291.108)" fill="#cba363"/>
              <path id="Path_28" data-name="Path 28" d="M468.034,291.108s.312,28.019-16.441,36.107-25.735,1.351-37.118,4.061a.035.035,0,0,0,.021-.014,63.343,63.343,0,0,1,19.045-5.618C444.1,324.37,464.285,317.487,468.034,291.108Z" transform="translate(-400.357 -291.108)" opacity="0.1"/>
              <g id="Group_24" data-name="Group 24" transform="translate(0 17.133)">
                <path id="Path_29" data-name="Path 29" d="M416.5,327.982a28.188,28.188,0,0,1,6.664-4.511c.358-.172.729-.312,1.094-.467.177-.223.365-.437.562-.643.5-.524,1.026-1.025,1.577-1.5a23.418,23.418,0,0,1,3.37-2.432c2.775-1.631,5.816-2.773,8.654-4.289.083-.044.154.085.071.127-1.4.729-2.761,1.532-4.126,2.329-1.327.774-2.685,1.513-3.976,2.347a28.426,28.426,0,0,0-3.316,2.485c-.3.258-.578.538-.86.823a44.754,44.754,0,0,1,5.661-1.5c3.068-.62,6.169-1.059,9.229-1.712a42.9,42.9,0,0,0,4.446-1.2c1.391-1.118,2.778-2.232,4.094-3.445a33.607,33.607,0,0,0,4.33-4.8c.055-.074.181,0,.123.077a51.27,51.27,0,0,1-6.868,7.578c.722-.275,1.437-.568,2.142-.887a34.581,34.581,0,0,0,14.276-11.877c.051-.077.176,0,.123.076a39.165,39.165,0,0,1-11.548,11.086,34.668,34.668,0,0,1-7.3,3.454,67.6,67.6,0,0,1-9.067,2.143,64.132,64.132,0,0,0-8.879,2.112,26.786,26.786,0,0,0-7.446,3.917,34.82,34.82,0,0,0-10.038,12.449c-3.171,6.36-4.687,13.471-5.528,20.485-.036.3-.5.3-.479-.012C404.269,348.417,407.417,336.161,416.5,327.982Z" transform="translate(-403.481 -304.45)" fill="#263238"/>
                <path id="Path_30" data-name="Path 30" d="M428.757,317.109a9.646,9.646,0,0,1,3.444-3.122,12.648,12.648,0,0,0,4.1-3.389c.055-.076.18,0,.123.076a13.872,13.872,0,0,1-3.617,3.24,12.618,12.618,0,0,0-3.941,3.259C428.818,317.238,428.715,317.177,428.757,317.109Z" transform="translate(-396.302 -302.712)" fill="#263238"/>
              </g>
            </g>
          </g>
          <g id="Group_28" data-name="Group 28" transform="translate(35.236 116.661)">
            <g id="Group_27" data-name="Group 27" transform="translate(2.463 6.431)">
              <path id="Path_31" data-name="Path 31" d="M430.983,338.878l-.762,15.408-2.337,47.072H392.739L390.4,354.286l-.762-15.408Z" transform="translate(-389.64 -338.878)" fill="#37474f"/>
              <path id="Path_32" data-name="Path 32" d="M430.983,338.878l-.762,15.408H390.4l-.762-15.408Z" transform="translate(-389.64 -338.878)" fill="#263238"/>
            </g>
            <rect id="Rectangle_34" data-name="Rectangle 34" width="46.269" height="14.698" fill="#37474f"/>
          </g>
        </g>
      </g>
      <g id="Envelope" transform="translate(277.402 433.621)">
        <g id="Group_48" data-name="Group 48">
          <path id="Path_43" data-name="Path 43" d="M348.244,366.817H187.358v-136.1l80.431-51.076,80.455,51.076Z" transform="translate(-164.679 -143.177)" fill="#13276b"/>
          <path id="Path_44" data-name="Path 44" d="M348.244,366.817H187.358v-136.1l80.431-51.076,80.455,51.076Z" transform="translate(-164.679 -143.177)" opacity="0.2"/>
          <g id="Group_37" data-name="Group 37" transform="translate(31.752 29.992)">
            <rect id="Rectangle_42" data-name="Rectangle 42" width="142.74" height="183.234" fill="#dfc49c"/>
            <path id="Path_45" data-name="Path 45" d="M250.463,279.176,217.782,246.1l10.979-10.846,19.091,19.322,39.662-62.178,13.014,8.3Z" transform="translate(-187.785 -169.546)" fill="#9d6827"/>
          </g>
          <path id="Path_46" data-name="Path 46" d="M348.243,245.945V347.976H187.358V245.945c6.909,3.914,13.7,8.022,20.536,12.033,6.813,4.082,13.626,8.166,20.391,12.322q11.307,6.886,22.59,13.965c.073-.049.169-.1.241-.145-.072.049-.119.121-.193.169q8.445,5.255,16.888,10.557c5.605-3.526,11.235-7.078,16.865-10.557-.073-.049-.121-.121-.194-.169a1.147,1.147,0,0,0,.241.121q11.272-7.031,22.591-13.965,10.147-6.2,20.367-12.3C334.545,253.967,341.335,249.859,348.243,245.945Z" transform="translate(-164.679 -124.337)" fill="#324480"/>
          <g id="Group_38" data-name="Group 38" transform="translate(22.679 121.608)" opacity="0.2">
            <path id="Path_47" data-name="Path 47" d="M348.243,245.945c-6.5,4.566-13.119,8.939-19.666,13.434q-9.9,6.6-19.861,13.143-10.4,6.813-20.851,13.506c-.217.145-.411.29-.628.435q-9.242,5.908-18.532,11.814l-.917.556-.9-.556q-9.277-5.908-18.506-11.839c-.218-.121-.435-.266-.652-.411q-10.475-6.705-20.875-13.53c-6.62-4.325-13.24-8.722-19.837-13.119-6.547-4.495-13.167-8.867-19.666-13.434,6.909,3.914,13.7,8.022,20.536,12.033,6.813,4.082,13.626,8.166,20.391,12.322q11.307,6.886,22.59,13.965c.024,0,.024,0,.049.024q8.445,5.255,16.888,10.557c5.605-3.526,11.235-7.078,16.865-10.557.024-.049.024-.049.047-.049q11.272-7.031,22.591-13.965,10.147-6.2,20.367-12.3C334.545,253.967,341.335,249.859,348.243,245.945Z" transform="translate(-187.358 -245.945)"/>
            <path id="Path_48" data-name="Path 48" d="M251.031,275.672c-.072.049-.119.121-.193.169-.845.724-1.691,1.45-2.536,2.15-4.035,3.407-8.167,6.669-12.37,9.834-5.123,3.914-10.366,7.659-15.632,11.379-5.292,3.648-10.607,7.272-16.043,10.752s-10.921,6.886-16.6,10c4.88-4.278,9.954-8.264,15.076-12.153,5.146-3.914,10.389-7.659,15.632-11.38,5.315-3.671,10.63-7.3,16.066-10.775,4.325-2.778,8.722-5.508,13.217-8.07,1.039-.6,2.078-1.184,3.14-1.763C250.863,275.768,250.959,275.721,251.031,275.672Z" transform="translate(-187.272 -237.498)"/>
            <path id="Path_49" data-name="Path 49" d="M326.365,319.959c-5.677-3.117-11.186-6.524-16.6-10-5.436-3.48-10.752-7.1-16.067-10.752-5.266-3.72-10.51-7.465-15.631-11.379-4.18-3.165-8.312-6.4-12.323-9.81-.869-.724-1.716-1.45-2.561-2.174-.073-.049-.121-.121-.194-.169a1.147,1.147,0,0,0,.241.121c1.063.6,2.1,1.184,3.141,1.788,4.495,2.562,8.867,5.292,13.217,8.07,5.436,3.48,10.751,7.1,16.042,10.775,5.268,3.721,10.511,7.466,15.633,11.38C316.411,311.7,321.485,315.681,326.365,319.959Z" transform="translate(-165.866 -237.498)"/>
          </g>
          <g id="Group_47" data-name="Group 47">
            <g id="Group_39" data-name="Group 39" transform="translate(34.266)">
              <line id="Line_3" data-name="Line 3" x1="0.022" y1="21.256" fill="none" stroke="#263238" stroke-miterlimit="10" stroke-width="1"/>
            </g>
            <g id="Group_40" data-name="Group 40" transform="translate(10.211 9.615)">
              <line id="Line_4" data-name="Line 4" x1="15.045" y1="15.015" fill="none" stroke="#263238" stroke-miterlimit="10" stroke-width="1"/>
            </g>
            <g id="Group_41" data-name="Group 41" transform="translate(0 33.401)">
              <line id="Line_5" data-name="Line 5" x1="21.255" y2="0.022" fill="none" stroke="#263238" stroke-miterlimit="10" stroke-width="1"/>
            </g>
            <g id="Group_42" data-name="Group 42" transform="translate(9.615 42.432)">
              <line id="Line_6" data-name="Line 6" x1="15.014" y2="15.045" fill="none" stroke="#263238" stroke-miterlimit="10" stroke-width="1"/>
            </g>
            <g id="Group_43" data-name="Group 43" transform="translate(170.994)">
              <line id="Line_7" data-name="Line 7" y1="21.256" x2="0.022" fill="none" stroke="#263238" stroke-miterlimit="10" stroke-width="1"/>
            </g>
            <g id="Group_44" data-name="Group 44" transform="translate(180.025 9.615)">
              <line id="Line_8" data-name="Line 8" y1="15.015" x2="15.045" fill="none" stroke="#263238" stroke-miterlimit="10" stroke-width="1"/>
            </g>
            <g id="Group_45" data-name="Group 45" transform="translate(184.026 33.401)">
              <line id="Line_9" data-name="Line 9" x2="21.255" y2="0.022" fill="none" stroke="#263238" stroke-miterlimit="10" stroke-width="1"/>
            </g>
            <g id="Group_46" data-name="Group 46" transform="translate(180.652 42.432)">
              <line id="Line_10" data-name="Line 10" x2="15.015" y2="15.045" fill="none" stroke="#263238" stroke-miterlimit="10" stroke-width="1"/>
            </g>
          </g>
        </g>
      </g>
    </g>
  </g>
</svg>
